<mxfile host="app.diagrams.net" modified="2023-10-31T23:20:01.450Z" agent="Mozilla/5.0 (Windows NT 10.0; Win64; x64) AppleWebKit/537.36 (KHTML, like Gecko) Chrome/118.0.0.0 Safari/537.36" version="22.0.8" etag="vQEfr6L6OmptJ88B6Xj-" type="github">
  <diagram name="Page-1" id="Xze8tN3Bu4kOTFC9ZPkb">
    <mxGraphModel>
      <root>
        <mxCell id="0" />
        <mxCell id="1" parent="0" />
        <mxCell id="2" value="Pengisian formulir pendaftaran siswa baru secara online" style="whiteSpace=wrap;strokeWidth=2;" vertex="1" parent="1">
          <mxGeometry x="82" width="417" height="34" as="geometry" />
        </mxCell>
        <mxCell id="3" value="Verifikasi data pendaftaran oleh petugas akademik" style="whiteSpace=wrap;strokeWidth=2;" vertex="1" parent="1">
          <mxGeometry x="100" y="84" width="381" height="34" as="geometry" />
        </mxCell>
        <mxCell id="4" value="Pembuatan akun siswa baru" style="whiteSpace=wrap;strokeWidth=2;" vertex="1" parent="1">
          <mxGeometry x="184" y="167" width="213" height="34" as="geometry" />
        </mxCell>
        <mxCell id="5" value="Pengiriman notifikasi ke email siswa baru tentang status pendaftaran" style="whiteSpace=wrap;strokeWidth=2;" vertex="1" parent="1">
          <mxGeometry x="34" y="251" width="512" height="34" as="geometry" />
        </mxCell>
        <mxCell id="6" value="Penyimpanan data pendaftaran siswa baru ke dalam database sistem informasi" style="whiteSpace=wrap;strokeWidth=2;" vertex="1" parent="1">
          <mxGeometry y="335" width="581" height="34" as="geometry" />
        </mxCell>
        <mxCell id="7" value="" style="curved=1;startArrow=none;endArrow=block;exitX=0.4995503597122302;exitY=0.9901961158303654;entryX=0.49950787401574803;entryY=-0.00980388416963465;" edge="1" parent="1" source="2" target="3">
          <mxGeometry relative="1" as="geometry">
            <Array as="points" />
          </mxGeometry>
        </mxCell>
        <mxCell id="8" value="" style="curved=1;startArrow=none;endArrow=block;exitX=0.49950787401574803;exitY=0.9803922316607308;entryX=0.49911971830985913;entryY=0.009803996366613051;" edge="1" parent="1" source="3" target="4">
          <mxGeometry relative="1" as="geometry">
            <Array as="points" />
          </mxGeometry>
        </mxCell>
        <mxCell id="9" value="" style="curved=1;startArrow=none;endArrow=block;exitX=0.49911971830985913;exitY=1.0000001121969784;entryX=0.5006103515625;entryY=1.1219697840073529e-7;" edge="1" parent="1" source="4" target="5">
          <mxGeometry relative="1" as="geometry">
            <Array as="points" />
          </mxGeometry>
        </mxCell>
        <mxCell id="10" value="" style="curved=1;startArrow=none;endArrow=block;exitX=0.5006103515625;exitY=0.9901962280273438;entryX=0.49967728055077454;entryY=-0.00980377197265625;" edge="1" parent="1" source="5" target="6">
          <mxGeometry relative="1" as="geometry">
            <Array as="points" />
          </mxGeometry>
        </mxCell>
      </root>
    </mxGraphModel>
  </diagram>
</mxfile>
